<?xml version="1.0" encoding="utf-8"?>
<!-- Generator: Adobe Illustrator 14.0.0, SVG Export Plug-In . SVG Version: 6.00 Build 43363)  -->
<!DOCTYPE svg PUBLIC "-//W3C//DTD SVG 1.1//EN" "http://www.w3.org/Graphics/SVG/1.1/DTD/svg11.dtd">
<svg version="1.1" id="图层_1" xmlns="http://www.w3.org/2000/svg" xmlns:xlink="http://www.w3.org/1999/xlink" x="0px" y="0px"
	 width="340px" height="283px" viewBox="0 0 340 283" enable-background="new 0 0 340 283" xml:space="preserve">
<g>
	
		<rect x="149.135" y="117.355" fill-rule="evenodd" clip-rule="evenodd" fill="none" stroke="#000000" stroke-width="0.5669" stroke-miterlimit="22.9256" width="35.537" height="9.803"/>
	
		<line fill-rule="evenodd" clip-rule="evenodd" fill="none" stroke="#000000" stroke-width="0.5669" stroke-miterlimit="22.9256" x1="153.61" y1="117.355" x2="153.61" y2="127.159"/>
	
		<line fill-rule="evenodd" clip-rule="evenodd" fill="none" stroke="#000000" stroke-width="0.5669" stroke-miterlimit="22.9256" x1="158.019" y1="117.355" x2="158.019" y2="127.159"/>
	
		<line fill-rule="evenodd" clip-rule="evenodd" fill="none" stroke="#000000" stroke-width="0.5669" stroke-miterlimit="22.9256" x1="162.427" y1="117.355" x2="162.427" y2="127.159"/>
	
		<line fill-rule="evenodd" clip-rule="evenodd" fill="none" stroke="#000000" stroke-width="0.5669" stroke-miterlimit="22.9256" x1="166.835" y1="117.355" x2="166.835" y2="127.159"/>
	
		<line fill-rule="evenodd" clip-rule="evenodd" fill="none" stroke="#000000" stroke-width="0.5669" stroke-miterlimit="22.9256" x1="171.244" y1="117.355" x2="171.244" y2="127.159"/>
	
		<line fill-rule="evenodd" clip-rule="evenodd" fill="none" stroke="#000000" stroke-width="0.5669" stroke-miterlimit="22.9256" x1="175.652" y1="117.355" x2="175.652" y2="127.159"/>
	
		<line fill-rule="evenodd" clip-rule="evenodd" fill="none" stroke="#000000" stroke-width="0.5669" stroke-miterlimit="22.9256" x1="180.061" y1="117.355" x2="180.061" y2="127.159"/>
</g>
<polygon fill-rule="evenodd" clip-rule="evenodd" fill="none" stroke="#000000" stroke-width="0.5669" stroke-miterlimit="22.9256" points="
	122.281,132.011 128.092,132.011 128.092,156.202 120.864,156.202 "/>
<polygon fill-rule="evenodd" clip-rule="evenodd" fill="none" stroke="#000000" stroke-width="0.5669" stroke-miterlimit="22.9256" points="
	205.804,132.011 211.615,132.011 213.032,156.202 205.804,156.202 "/>
<polygon fill-rule="evenodd" clip-rule="evenodd" fill="none" stroke="#000000" stroke-width="0.5669" stroke-miterlimit="22.9256" points="
	135.653,103.765 124.533,103.765 123.398,125.154 135.653,125.154 "/>
<line fill-rule="evenodd" clip-rule="evenodd" fill="none" stroke="#00AEEF" stroke-width="0.5669" stroke-miterlimit="22.9256" x1="166.939" y1="67.224" x2="166.939" y2="90.062"/>
<polyline fill-rule="evenodd" clip-rule="evenodd" fill="none" stroke="#00AEEF" stroke-width="0.5669" stroke-miterlimit="22.9256" points="
	139.083,43.827 147.396,38.786 149.254,51.521 154.472,45.949 155.091,54.705 159.601,46.834 161.105,59.834 "/>
<polyline fill-rule="evenodd" clip-rule="evenodd" fill="none" stroke="#00AEEF" stroke-width="0.5669" stroke-miterlimit="22.9256" points="
	132.008,60.1 136.165,71.686 142.355,64.875 145.805,71.951 151.73,66.468 155.268,70.625 159.955,67.617 "/>
<polyline fill-rule="evenodd" clip-rule="evenodd" fill="none" stroke="#00AEEF" stroke-width="0.5669" stroke-miterlimit="22.9256" points="
	174.99,64.345 182.861,55.147 188.168,60.454 191.086,54.44 196.305,57.978 198.161,49.222 205.768,49.31 "/>
<polyline fill-rule="evenodd" clip-rule="evenodd" fill="none" stroke="#00AEEF" stroke-width="0.5669" stroke-miterlimit="22.9256" points="
	174.725,68.767 181.093,74.339 182.419,68.325 189.141,72.747 190.732,65.937 198.339,66.999 "/>
<polygon fill-rule="evenodd" clip-rule="evenodd" fill="none" stroke="#000000" stroke-width="0.5669" stroke-miterlimit="22.9256" points="
	198.133,103.765 209.253,103.765 210.387,125.154 198.133,125.154 "/>
<path fill-rule="evenodd" clip-rule="evenodd" fill="none" stroke="#00AEEF" stroke-width="0.5669" stroke-miterlimit="22.9256" d="
	M128.359,173.468h77.16 M205.52,188.858h-77.16"/>
<line fill-rule="evenodd" clip-rule="evenodd" fill="none" stroke="#00AEEF" stroke-width="0.5669" stroke-miterlimit="22.9256" x1="154.353" y1="173.468" x2="154.353" y2="188.858"/>
<line fill-rule="evenodd" clip-rule="evenodd" fill="none" stroke="#00AEEF" stroke-width="0.5669" stroke-miterlimit="22.9256" x1="180.078" y1="173.468" x2="180.078" y2="188.858"/>
<polyline fill-rule="evenodd" clip-rule="evenodd" fill="none" stroke="#000000" stroke-width="0.5669" stroke-miterlimit="22.9256" points="
	145.627,209.998 141.906,219.224 127.849,217.156 121.563,233.613 158.197,233.613 158.197,210.08 "/>
<line fill-rule="evenodd" clip-rule="evenodd" fill="none" stroke="#000000" stroke-width="0.5669" stroke-miterlimit="22.9256" x1="141.907" y1="219.225" x2="158.197" y2="223.689"/>
<line fill-rule="evenodd" clip-rule="evenodd" fill="none" stroke="#000000" stroke-width="0.5669" stroke-miterlimit="22.9256" x1="124.489" y1="225.953" x2="158.197" y2="225.953"/>
<polyline fill-rule="evenodd" clip-rule="evenodd" fill="none" stroke="#000000" stroke-width="0.5669" stroke-miterlimit="22.9256" points="
	188.252,209.998 191.973,219.224 206.031,217.156 212.315,233.613 175.683,233.613 175.683,210.08 "/>
<line fill-rule="evenodd" clip-rule="evenodd" fill="none" stroke="#000000" stroke-width="0.5669" stroke-miterlimit="22.9256" x1="191.973" y1="219.225" x2="175.682" y2="223.689"/>
<line fill-rule="evenodd" clip-rule="evenodd" fill="none" stroke="#000000" stroke-width="0.5669" stroke-miterlimit="22.9256" x1="209.391" y1="225.953" x2="175.682" y2="225.953"/>

<polyline fill="none" stroke="#000000" stroke-width="0.5669" stroke-miterlimit="22.9256" points="135.653,132.011 135.653,90.203 
	198.153,90.203 198.153,132.011 "/>
<g>
	
		<rect x="147.729" y="100.025" fill-rule="evenodd" clip-rule="evenodd" fill="none" stroke="#000000" stroke-width="0.5669" stroke-miterlimit="22.9256" width="13.899" height="13.604"/>
	
		<rect x="152.551" y="104.701" fill-rule="evenodd" clip-rule="evenodd" fill="none" stroke="#000000" stroke-width="0.5669" stroke-miterlimit="22.9256" width="4.253" height="4.253"/>
	
		<rect x="172.179" y="100.025" fill-rule="evenodd" clip-rule="evenodd" fill="none" stroke="#000000" stroke-width="0.5669" stroke-miterlimit="22.9256" width="13.899" height="13.604"/>
	
		<rect x="177.002" y="104.701" fill-rule="evenodd" clip-rule="evenodd" fill="none" stroke="#000000" stroke-width="0.5669" stroke-miterlimit="22.9256" width="4.253" height="4.253"/>
</g>
<rect x="163.559" y="63.013" fill-rule="evenodd" clip-rule="evenodd" fill="none" stroke="#00AEEF" stroke-width="0.5669" stroke-miterlimit="22.9256" width="6.763" height="4.227"/>
<polygon fill-rule="evenodd" clip-rule="evenodd" fill="none" stroke="#000000" stroke-width="0.5669" stroke-miterlimit="22.9256" points="
	81.661,144.259 94.992,137.204 102.377,143.192 100.681,134.192 105.378,131.707 114.116,148.217 90.399,160.769 "/>
<path fill-rule="evenodd" clip-rule="evenodd" fill="none" stroke="#000000" stroke-width="0.5669" stroke-miterlimit="22.9256" d="
	M120.864,156.202c0.599,0.816-1.205,3.568-1.205,3.568l-3.008,1.953l-4.702-2.664l-3.678-7.749"/>
<polyline fill-rule="evenodd" clip-rule="evenodd" fill="none" stroke="#000000" stroke-width="0.5669" stroke-miterlimit="22.9256" points="
	128.076,166.566 120.118,169.846 113.997,170.598 107.499,168.06 100.087,155.69 "/>
<line fill-rule="evenodd" clip-rule="evenodd" fill="none" stroke="#000000" stroke-width="0.5669" stroke-miterlimit="22.9256" x1="102.548" y1="159.798" x2="109.937" y2="155.584"/>
<polyline fill-rule="evenodd" clip-rule="evenodd" fill="none" stroke="#000000" stroke-width="0.5669" stroke-miterlimit="22.9256" points="
	111.948,159.06 109.039,162.586 105.493,164.711 "/>
<polyline fill-rule="evenodd" clip-rule="evenodd" fill="none" stroke="#000000" stroke-width="0.5669" stroke-miterlimit="22.9256" points="
	115.891,161.293 114.95,165.468 111.313,169.549 "/>
<polyline fill-rule="evenodd" clip-rule="evenodd" fill="none" stroke="#000000" stroke-width="0.5669" stroke-miterlimit="22.9256" points="
	119.659,159.771 122.586,163.871 123.111,168.612 "/>
<polyline fill-rule="evenodd" clip-rule="evenodd" fill="none" stroke="#000000" stroke-width="0.5669" stroke-miterlimit="22.9256" points="
	212.245,142.771 221.183,149.78 227.008,156.451 231.522,164.404 234.983,175.915 "/>
<polyline fill-rule="evenodd" clip-rule="evenodd" fill="none" stroke="#000000" stroke-width="0.5669" stroke-miterlimit="22.9256" points="
	213.032,154.908 218.829,161.479 222.714,170.434 223.488,176.522 "/>
<polyline fill-rule="evenodd" clip-rule="evenodd" fill="none" stroke="#000000" stroke-width="0.5669" stroke-miterlimit="22.9256" points="
	214.366,156.117 217.207,152.35 221.183,149.78 "/>
<polyline fill-rule="evenodd" clip-rule="evenodd" fill="none" stroke="#000000" stroke-width="0.5669" stroke-miterlimit="22.9256" points="
	218.333,160.747 220.909,157.262 225.963,155.254 "/>
<polyline fill-rule="evenodd" clip-rule="evenodd" fill="none" stroke="#000000" stroke-width="0.5669" stroke-miterlimit="22.9256" points="
	220.224,164.694 224.356,161.88 229.633,160.61 "/>
<polyline fill-rule="evenodd" clip-rule="evenodd" fill="none" stroke="#000000" stroke-width="0.5669" stroke-miterlimit="22.9256" points="
	222.714,170.434 227.067,168.796 232.772,168.563 "/>
<polygon fill-rule="evenodd" clip-rule="evenodd" fill="none" stroke="#000000" stroke-width="0.5669" stroke-miterlimit="22.9256" points="
	244.256,194.634 229.012,195.108 224.97,186.384 222.506,195.311 217.135,195.479 216.547,176.599 243.668,175.754 "/>
<rect x="128.076" y="132.011" fill-rule="evenodd" clip-rule="evenodd" fill="none" stroke="#00AEEF" stroke-width="0.5669" stroke-miterlimit="22.9256" width="77.728" height="78.13"/>
</svg>
