<?xml version="1.0" encoding="UTF-8" standalone="no"?>
<!-- Created with Inkscape (http://www.inkscape.org/) -->

<svg
   xmlns:dc="http://purl.org/dc/elements/1.1/"
   xmlns:cc="http://creativecommons.org/ns#"
   xmlns:rdf="http://www.w3.org/1999/02/22-rdf-syntax-ns#"
   xmlns:svg="http://www.w3.org/2000/svg"
   xmlns="http://www.w3.org/2000/svg"
   xmlns:sodipodi="http://sodipodi.sourceforge.net/DTD/sodipodi-0.dtd"
   xmlns:inkscape="http://www.inkscape.org/namespaces/inkscape"
   width="744.09448819"
   height="1052.3622047"
   id="svg2"
   version="1.1"
   inkscape:version="0.48.5 r10040"
   sodipodi:docname="demo0.svg">
  <defs
     id="defs4" />
  <sodipodi:namedview
     id="base"
     pagecolor="#ffffff"
     bordercolor="#666666"
     borderopacity="1.0"
     inkscape:pageopacity="0.0"
     inkscape:pageshadow="2"
     inkscape:zoom="3.959798"
     inkscape:cx="400.15183"
     inkscape:cy="627.07238"
     inkscape:document-units="px"
     inkscape:current-layer="layer1"
     showgrid="false"
     inkscape:window-width="1920"
     inkscape:window-height="1018"
     inkscape:window-x="-8"
     inkscape:window-y="-8"
     inkscape:window-maximized="1" />
  <metadata
     id="metadata7">
    <rdf:RDF>
      <cc:Work
         rdf:about="">
        <dc:format>image/svg+xml</dc:format>
        <dc:type
           rdf:resource="http://purl.org/dc/dcmitype/StillImage" />
        <dc:title />
      </cc:Work>
    </rdf:RDF>
  </metadata>
  <g
     inkscape:label="Layer 1"
     inkscape:groupmode="layer"
     id="layer1">
    <path
       style="fill:none;stroke:#000000;stroke-width:1px;stroke-linecap:butt;stroke-linejoin:miter;stroke-opacity:1"
       d="m 251.02291,437.17929 c 0.16835,-0.33672 0.41377,-0.64494 0.50507,-1.01016 0.14292,-0.57166 -0.14291,-1.1961 0,-1.76776 0.10995,-0.43979 0.43055,-0.81554 0.50508,-1.26269 1.07312,-6.43871 -1.15591,2.53045 0.50507,-3.283 1.39234,-4.87319 -0.51258,1.29271 1.01016,-4.79822 0.19369,-0.77476 0.60099,-1.48976 0.75761,-2.27285 0.18235,-0.91173 0.0435,-1.87194 0.25254,-2.77792 0.29929,-1.2969 0.88457,-2.51192 1.26269,-3.78807 0.29581,-0.99834 0.50508,-2.0203 0.75762,-3.03046 0.5043,-2.01721 1.11966,-4.62168 1.76776,-6.56599 0.28671,-0.86011 0.72345,-1.66527 1.01015,-2.52538 0.21952,-0.65854 0.27405,-1.36572 0.50508,-2.0203 0.37185,-1.05358 1.23035,-2.71324 1.76777,-3.78808 0.36137,-0.72274 0.57182,-1.02459 0.75761,-1.76776 0.0259,-0.10369 -0.0306,-0.47447 0,-0.50508 0.0595,-0.0595 0.25254,-0.0842 0.25254,0 0,0.18823 -0.16836,0.33672 -0.25254,0.50508 0,0.25253 -0.0313,0.50702 0,0.75761 0.0532,0.42592 0.17576,0.84038 0.25254,1.26269 0.0916,0.50379 0.18012,1.00833 0.25254,1.51523 0.096,0.67185 0.11944,1.35481 0.25254,2.02031 2.03717,10.18586 -0.32988,-3.2033 1.26269,5.55583 0.65716,3.61439 0.34471,2.74107 1.26269,6.566 0.22399,0.93329 0.51534,1.8492 0.75761,2.77792 2.27337,8.71455 -1.01523,-3.51833 1.76777,6.81852 0.49904,1.85359 1.03068,3.69842 1.51523,5.55584 0.26283,1.00753 0.56278,2.00761 0.75761,3.03046 0.11516,0.6046 0.25749,2.9834 0.50508,3.78807 0.65394,2.12531 0.81514,1.26904 1.26269,3.283 0.0548,0.24652 -0.0612,0.51262 0,0.75761 0.0289,0.1155 0.1993,0.14606 0.25254,0.25254 0.0376,0.0753 0.0842,0.25254 0,0.25254 -0.37159,0 -0.25254,-0.65899 -0.25254,-0.75761 0,-0.16836 -0.0277,-0.33901 0,-0.50508 0.3017,-1.81018 1.25297,-3.42017 2.0203,-5.05076 0.35302,-0.75016 0.65524,-1.52358 1.01016,-2.27285 0.40289,-0.85055 0.85542,-1.67691 1.26269,-2.52538 0.60297,-1.2562 1.16328,-2.5326 1.76776,-3.78807 0.48995,-1.01758 1.09579,-1.98185 1.51523,-3.03046 0.42523,-1.06307 0.616,-2.20801 1.01016,-3.28299 0.53277,-1.45303 1.21889,-2.84613 1.76776,-4.29315 0.37764,-0.99558 0.63628,-2.03346 1.01016,-3.03046 0.43862,-1.16967 1.9394,-4.63643 2.52538,-5.80838 0.55584,-1.11167 1.1726,-2.19186 1.76776,-3.28299 0.41502,-0.76086 0.82327,-1.52582 1.26269,-2.27285 0.86811,-1.47577 2.02249,-3.20171 3.03046,-4.54568 0.39448,-0.52597 0.84636,-1.00638 1.26269,-1.51523 1.00098,-1.22342 1.04978,-1.43821 2.27285,-2.52538 0.31458,-0.27963 0.68681,-0.48816 1.01015,-0.75762 0.18291,-0.15242 0.3146,-0.36222 0.50507,-0.50507 0.15059,-0.11294 0.34846,-0.35695 0.50508,-0.25254 0.22149,0.14766 0.15907,0.50836 0.25254,0.75761 0.15917,0.42446 0.35261,0.83578 0.50508,1.26269 0.26859,0.75208 0.49182,1.51978 0.75761,2.27285 0.23937,0.67822 0.54103,1.33446 0.75761,2.0203 0.28903,0.91524 0.4651,1.86379 0.75762,2.77792 0.3814,1.19188 0.90718,2.33568 1.26269,3.53554 0.31906,1.07682 0.46564,2.19852 0.75761,3.28299 0.29766,1.1056 0.70016,2.1808 1.01016,3.283 0.44777,1.59209 0.83655,3.2002 1.26269,4.79822 0.65728,2.4648 0.93089,3.27628 1.51523,5.80838 0.27101,1.1744 0.50158,2.35778 0.75761,3.53553 0.21345,0.98188 0.71237,3.28069 1.01015,4.29315 0.22534,0.76615 0.56393,1.49809 0.75762,2.27284 0.14436,0.57747 0.15468,1.18063 0.25254,1.76777 0.24415,1.46492 0.31818,1.41922 0.75761,3.03046 0.23105,0.8472 0.43014,1.70671 0.75761,2.52538 0.0699,0.17477 0.19302,0.32651 0.25254,0.50508 0.0266,0.0799 0.0842,0.25253 0,0.25253 -0.31206,0 -0.25254,-0.35415 -0.25254,-0.50507"
       id="path2996"
       inkscape:connector-curvature="0" />
  </g>
</svg>
