<?xml version="1.0" encoding="UTF-8"?>
<!DOCTYPE svg PUBLIC "-//W3C//DTD SVG 1.1//EN" "http://www.w3.org/Graphics/SVG/1.1/DTD/svg11.dtd">
<!-- Creator: CorelDRAW X6 -->
<svg xmlns="http://www.w3.org/2000/svg" xml:space="preserve" width="297mm" height="210mm" version="1.1" style="shape-rendering:geometricPrecision; text-rendering:geometricPrecision; image-rendering:optimizeQuality; fill-rule:evenodd; clip-rule:evenodd"
viewBox="0 0 29700 21000"
 xmlns:xlink="http://www.w3.org/1999/xlink">
 <defs>
  <style type="text/css">
   <![CDATA[
    .str0 {stroke:#332C2B;stroke-width:20}
    .fil0 {fill:none}
   ]]>
  </style>
 </defs>
 <g id="图层_x0020_1">
  <metadata id="CorelCorpID_0Corel-Layer"/>
  <path class="fil0 str0" d="M15733 12835l3851 -138m928 -34l963 -35 2283 -84m978 -37l2826 -105"/>
  <polygon class="fil0 str0" points="23855,13007 23688,12176 24802,12169 24608,12987 "/>
  <polyline class="fil0 str0" points="23808,12771 23347,12991 24245,13101 25226,12980 24683,12669 "/>
  <polyline class="fil0 str0" points="24176,12173 24186,11741 24213,11439 24471,11274 24741,11372 24476,11613 24218,11736 "/>
  <polyline class="fil0 str0" points="24169,11589 24038,11323 23788,11244 23615,11372 23795,11643 24159,11734 "/>
  <line class="fil0 str0" x1="18391" y1="9944" x2="18863" y2= "9629" />
  <line class="fil0 str0" x1="22261" y1="9364" x2="22654" y2= "9600" />
  <polyline class="fil0 str0" points="18627,9787 19257,10101 20255,10219 21396,10087 22138,9806 22453,9541 "/>
  <polygon class="fil0 str0" points="18500,7940 17796,8626 17767,9777 18391,10529 20019,10873 21789,10834 22487,10500 23048,9752 22969,8474 22138,7685 20938,7331 19522,7360 "/>
  <line class="fil0 str0" x1="17772" y1="7468" x2="18265" y2= "8169" />
  <line class="fil0 str0" x1="18273" y1="7144" x2="18670" y2= "7844" />
  <line class="fil0 str0" x1="18765" y1="6987" x2="19110" y2= "7594" />
  <line class="fil0 str0" x1="19208" y1="6780" x2="19522" y2= "7360" />
  <line class="fil0 str0" x1="19788" y1="6682" x2="20064" y2= "7349" />
  <line class="fil0 str0" x1="20191" y1="6475" x2="20339" y2= "7343" />
  <line class="fil0 str0" x1="20535" y1="6387" x2="20614" y2= "7338" />
  <line class="fil0 str0" x1="20860" y1="6259" x2="20882" y2= "7332" />
  <line class="fil0 str0" x1="21469" y1="6505" x2="21332" y2= "7447" />
  <line class="fil0 str0" x1="21882" y1="6760" x2="21595" y2= "7525" />
  <line class="fil0 str0" x1="22325" y1="6859" x2="21889" y2= "7611" />
  <polyline class="fil0 str0" points="22829,8341 23220,8058 23741,7970 24164,8294 24046,8943 23544,9356 23025,9388 "/>
  <line class="fil0 str0" x1="22984" y1="8719" x2="23849" y2= "8393" />
  <polyline class="fil0 str0" points="23545,8507 23465,8904 23141,9189 "/>
  <polyline class="fil0 str0" points="17792,8797 17388,8619 16887,9022 16818,9583 17192,9897 17693,9858 "/>
  <polyline class="fil0 str0" points="17786,9052 17339,9081 17034,9278 "/>
  <polyline class="fil0 str0" points="17339,9081 17516,9504 17713,9622 "/>
  <polygon class="fil0 str0" points="20260,8481 20161,8464 19987,8656 20093,8909 20257,8897 20351,8717 "/>
  <polygon class="fil0 str0" points="21032,8730 20968,8439 20830,8395 20722,8543 20734,8759 20894,8857 "/>
  <polyline class="fil0 str0" points="20494,10863 20488,11385 20892,11645 21196,11394 21108,11242 21099,10849 "/>
  <polyline class="fil0 str0" points="21196,11394 21521,11488 21934,11896 22234,12476 "/>
  <polyline class="fil0 str0" points="20489,11336 20080,11547 19697,11955 19505,12550 19692,12801 20262,13086 20680,12727 "/>
  <polyline class="fil0 str0" points="20316,12034 20007,12393 19721,12599 "/>
  <line class="fil0 str0" x1="20169" y1="12476" x2="19721" y2= "12599" />
  <polyline class="fil0 str0" points="20007,12393 20410,12624 20193,12865 20168,13039 "/>
  <polyline class="fil0 str0" points="21806,12545 21619,12166 21437,12034 21477,12575 "/>
  <line class="fil0 str0" x1="20385" y1="11999" x2="21398" y2= "11999" />
  <line class="fil0 str0" x1="20508" y1="12314" x2="21354" y2= "12230" />
  <line class="fil0 str0" x1="20464" y1="12496" x2="21368" y2= "12402" />
  <polyline class="fil0 str0" points="20316,12034 20400,12348 20375,12545 "/>
  <line class="fil0 str0" x1="20285" y1="11441" x2="20523" y2= "11965" />
  <line class="fil0 str0" x1="20892" y1="11645" x2="20656" y2= "11955" />
  <line class="fil0 str0" x1="20892" y1="11645" x2="21044" y2= "11999" />
  <line class="fil0 str0" x1="21398" y1="11483" x2="21073" y2= "11935" />
  <line class="fil0 str0" x1="21511" y1="11547" x2="21437" y2= "12034" />
  <line class="fil0 str0" x1="21757" y1="11783" x2="21619" y2= "12063" />
  <line class="fil0 str0" x1="21909" y1="12029" x2="21742" y2= "12275" />
  <line class="fil0 str0" x1="22042" y1="12260" x2="21845" y2= "12437" />
  <line class="fil0 str0" x1="20115" y1="11586" x2="20292" y2= "11985" />
  <line class="fil0 str0" x1="19923" y1="11715" x2="20100" y2= "12122" />
  <line class="fil0 str0" x1="19771" y1="11960" x2="20019" y2= "12316" />
  <line class="fil0 str0" x1="19601" y1="12252" x2="19898" y2= "12398" />
  <line class="fil0 str0" x1="19579" y1="12560" x2="19721" y2= "12599" />
  <line class="fil0 str0" x1="15733" y1="12835" x2="19461" y2= "12624" />
  <line class="fil0 str0" x1="27562" y1="12402" x2="24790" y2= "12432" />
  <line class="fil0 str0" x1="20459" y1="12604" x2="23547" y2= "12552" />
  <polygon class="fil0 str0" points="11841,9360 11195,8561 10506,9268 9639,9781 8725,9500 8761,9189 10066,8384 11000,8152 11317,8366 11835,8213 12744,8530 13512,8988 12774,9433 "/>
  <line class="fil0 str0" x1="10548" y1="8549" x2="9341" y2= "9159" />
  <line class="fil0 str0" x1="10798" y1="8640" x2="9841" y2= "9323" />
  <polyline class="fil0 str0" points="11585,8579 11921,8957 12366,9116 "/>
  <polyline class="fil0 str0" points="12104,8555 12561,8713 12939,9006 "/>
  <polyline class="fil0 str0" points="13482,8848 13525,9372 13677,8866 13732,9354 13884,8878 13945,9329 14098,8799 14153,9317 13964,8872 13848,9299 13756,8872 13634,9348 13561,8842 "/>
  <line class="fil0 str0" x1="14098" y1="8799" x2="15293" y2= "8177" />
  <line class="fil0 str0" x1="14177" y1="8921" x2="15391" y2= "8695" />
  <line class="fil0 str0" x1="14202" y1="9122" x2="15324" y2= "9092" />
  <line class="fil0 str0" x1="14153" y1="9317" x2="15110" y2= "9811" />
  <line class="fil0 str0" x1="13732" y1="9354" x2="14482" y2= "10135" />
  <polyline class="fil0 str0" points="8676,9189 8664,9750 8481,9244 8499,9732 8279,9293 8340,9805 8395,9268 8590,9744 8603,9232 8743,9714 "/>
  <line class="fil0 str0" x1="8287" y1="9359" x2="6913" y2= "9299" />
  <line class="fil0 str0" x1="8294" y1="9412" x2="6944" y2= "9891" />
  <line class="fil0 str0" x1="8310" y1="9549" x2="7096" y2= "10110" />
  <line class="fil0 str0" x1="8275" y1="9565" x2="7041" y2= "10470" />
  <line class="fil0 str0" x1="8267" y1="9689" x2="7377" y2= "10580" />
  <line class="fil0 str0" x1="8728" y1="9663" x2="8804" y2= "10519" />
  <polyline class="fil0 str0" points="13580,9317 13159,10470 12317,11519 11164,11897 10231,11922 9237,11482 "/>
  <line class="fil0 str0" x1="12549" y1="10299" x2="12799" y2= "10525" />
  <polyline class="fil0 str0" points="12674,10412 12421,10866 11427,11464 10371,11482 9591,11287 9188,10976 "/>
  <polygon class="fil0 str0" points="10942,9740 10867,9445 10562,9534 10580,9831 10757,9920 "/>
  <polygon class="fil0 str0" points="11596,9436 11474,9369 11282,9511 11320,9727 11492,9798 11649,9663 "/>
  <polyline class="fil0 str0" points="9133,10234 9078,10935 9396,11697 9518,11984 9109,12295 8731,13198 "/>
  <line class="fil0 str0" x1="8872" y1="12860" x2="9335" y2= "12637" />
  <polyline class="fil0 str0" points="9133,10234 8999,10246 8902,10508 8755,10569 8700,10770 8603,10667 8383,10990 8481,11332 8938,11832 8469,12515 8322,13149 8438,13503 8914,13491 9768,12875 9451,12478 9847,12137 10396,12112 10768,12399 11067,12356 11329,12033 12000,12027 12049,12527 11433,12661 11457,13021 "/>
  <polyline class="fil0 str0" points="9768,12875 10262,12856 10231,13186 "/>
  <polyline class="fil0 str0" points="12012,12154 12634,12155 12787,12417 12592,13161 12348,13680 12445,13893 12384,14253 12195,14412 11683,14424 "/>
  <polyline class="fil0 str0" points="11854,14052 11518,14595 11372,14570 11677,13991 "/>
  <polyline class="fil0 str0" points="11594,14148 11244,14290 11195,14088 11616,13759 11896,13667 12342,12887 12372,12503 12042,12460 "/>
  <polygon class="fil0 str0" points="5352,12865 5187,12298 6499,12335 6401,12780 6102,13530 5657,13579 5462,13463 "/>
  <polyline class="fil0 str0" points="5843,12317 5883,11493 6181,11219 6553,11322 6492,11487 6279,11731 5913,11798 "/>
  <polyline class="fil0 str0" points="5913,12318 5822,11499 5584,11322 5169,11310 5084,11414 5352,11646 5761,11804 "/>
  <polyline class="fil0 str0" points="5407,13164 4913,13134 4590,13439 5254,13475 6059,13610 7048,13268 8322,13149 "/>
  <line class="fil0 str0" x1="8304" y1="13256" x2="6334" y2= "13134" />
  <polyline class="fil0 str0" points="9206,13280 10323,13225 11536,13006 12256,12878 "/>
  <polyline class="fil0 str0" points="12769,12805 13732,12652 14891,12561 15733,12835 "/>
  <line class="fil0 str0" x1="14867" y1="12634" x2="12854" y2= "12841" />
  <line class="fil0 str0" x1="16390" y1="13670" x2="16331" y2= "15086" />
  <line class="fil0 str0" x1="16361" y1="14378" x2="16926" y2= "14339" />
  <line class="fil0 str0" x1="16936" y1="13660" x2="16916" y2= "15165" />
  <polyline class="fil0 str0" points="17103,15017 17369,13699 17762,14850 "/>
  <line class="fil0 str0" x1="17201" y1="14531" x2="17645" y2= "14508" />
  <line class="fil0 str0" x1="17851" y1="13709" x2="17910" y2= "14968" />
  <polyline class="fil0 str0" points="17851,13709 18214,13808 18332,14280 18018,14516 "/>
  <line class="fil0 str0" x1="18578" y1="13670" x2="18490" y2= "14899" />
  <polyline class="fil0 str0" points="18578,13670 18981,13886 19011,14221 18696,14506 "/>
  <polyline class="fil0 str0" points="19749,13680 19404,14181 19168,13739 "/>
  <line class="fil0 str0" x1="19404" y1="14181" x2="19365" y2= "14870" />
  <polyline class="fil0 str0" points="3602,7888 3936,5862 4349,6963 4860,5941 5372,7888 "/>
  <polyline class="fil0 str0" points="6080,6727 5608,6727 5608,7219 6159,7435 "/>
  <polyline class="fil0 str0" points="5647,6118 6119,6255 6218,7750 "/>
  <line class="fil0 str0" x1="6631" y1="5764" x2="6670" y2= "7770" />
  <line class="fil0 str0" x1="7299" y1="6098" x2="6650" y2= "6767" />
  <line class="fil0 str0" x1="6650" y1="6767" x2="7378" y2= "7612" />
  <polyline class="fil0 str0" points="7830,6806 8499,6885 8361,6432 7948,6354 7693,7219 8027,7632 8558,7376 "/>
  <polyline class="fil0 str0" points="9010,5469 9050,7553 9699,7337 9659,6885 9207,6708 "/>
  <line class="fil0 str0" x1="10072" y1="5508" x2="10289" y2= "7573" />
  <polygon class="fil0 str0" points="11941,6609 11429,6078 10682,6118 10623,6826 11036,7376 11606,7219 "/>
  <polyline class="fil0 str0" points="13062,5862 12531,5528 12236,6177 12295,6983 12649,7278 13317,6885 "/>
  <line class="fil0 str0" x1="13652" y1="5390" x2="13612" y2= "7278" />
  <line class="fil0 str0" x1="14320" y1="5724" x2="13638" y2= "6059" />
  <line class="fil0 str0" x1="13632" y1="6334" x2="14537" y2= "6983" />
  <polygon class="fil0 str0" points="10882,9705 10844,9556 10689,9601 10698,9752 10788,9797 "/>
  <polygon class="fil0 str0" points="11546,9537 11488,9505 11396,9573 11414,9676 11496,9710 11571,9646 "/>
  <polygon class="fil0 str0" points="20249,8604 20198,8595 20107,8695 20162,8826 20248,8820 20296,8727 "/>
  <polygon class="fil0 str0" points="20959,8702 20928,8563 20862,8541 20810,8612 20816,8716 20893,8764 "/>
  <line class="fil0 str0" x1="10469" y1="11915" x2="10492" y2= "12186" />
  <line class="fil0 str0" x1="11039" y1="11900" x2="11125" y2= "12217" />
 </g>
</svg>
